<?xml version="1.0" encoding="UTF-8" standalone="no"?>
<svg
   xmlns:dc="http://purl.org/dc/elements/1.1/"
   xmlns:cc="http://creativecommons.org/ns#"
   xmlns:rdf="http://www.w3.org/1999/02/22-rdf-syntax-ns#"
   xmlns:svg="http://www.w3.org/2000/svg"
   xmlns="http://www.w3.org/2000/svg"
   xmlns:sodipodi="http://sodipodi.sourceforge.net/DTD/sodipodi-0.dtd"
   xmlns:inkscape="http://www.inkscape.org/namespaces/inkscape"
   version="1.1"
   id="Layer_1"
   x="0px"
   y="0px"
   width="100px"
   height="100px"
   viewBox="0 0 100 100"
   enable-background="new 0 0 100 100"
   xml:space="preserve"
   inkscape:version="0.48.2 r9819"
   sodipodi:docname="laptop.svg"><metadata
   id="metadata4219"><rdf:RDF><cc:Work
       rdf:about=""><dc:format>image/svg+xml</dc:format><dc:type
         rdf:resource="http://purl.org/dc/dcmitype/StillImage" /></cc:Work></rdf:RDF></metadata><defs
   id="defs4217" /><sodipodi:namedview
   pagecolor="#ffffff"
   bordercolor="#666666"
   borderopacity="1"
   objecttolerance="10"
   gridtolerance="10"
   guidetolerance="10"
   inkscape:pageopacity="0"
   inkscape:pageshadow="2"
   inkscape:window-width="640"
   inkscape:window-height="480"
   id="namedview4215"
   showgrid="false"
   inkscape:zoom="2.36"
   inkscape:cx="50"
   inkscape:cy="50"
   inkscape:window-x="0"
   inkscape:window-y="0"
   inkscape:window-maximized="0"
   inkscape:current-layer="Layer_1" />
<g
   id="g4181">
	<path
   fill="#000000"
   stroke="#231F20"
   stroke-width="0.5"
   d="M192.218,51.761c0.164,0.334-0.45,0.334-1.003,0.334h-8.277h-2.532   c-0.556,0-1.19-0.074-1.005-0.334l0.832-1.298c0.11-0.189,0.449-0.334,1.004-0.334l9.146,0.05c0.552,0,0.822,0.112,1.002,0.335   L192.218,51.761z"
   id="path4183" />
	<path
   fill="#000000"
   stroke="#231F20"
   stroke-width="0.5"
   d="M187.748,53.277c0.049,0.15-0.138,0.15-0.305,0.15h-2.5h-0.767   c-0.166,0-0.358-0.033-0.3-0.15l0.249-0.589c0.031-0.088,0.137-0.153,0.303-0.153l2.765,0.024c0.167,0,0.248,0.05,0.302,0.151   L187.748,53.277z"
   id="path4185" />
	<rect
   x="180.781"
   y="41.793"
   fill="#000000"
   stroke="#231F20"
   stroke-width="0.25"
   width="9.835"
   height="6.695"
   id="rect4187" />
	<path
   fill="#000000"
   stroke="#231F20"
   stroke-width="0.75"
   d="M194.281,53.784l-1.959-3.249c-0.463-0.61-0.594-0.873-1.326-0.873   l-1-0.011v-0.479h0.324c0.818,0,1.482-0.614,1.482-1.371v-5.315c0-0.756-0.664-1.369-1.482-1.369h-9.241   c-0.821,0-1.483,0.613-1.483,1.369v5.315c0,0.757,0.662,1.371,1.483,1.371h0.39v0.371l-0.814-0.009   c-0.732,0-1.027,0.319-1.324,0.872l-1.961,3.379c-0.494,0.677,0.591,0.872,1.323,0.872h3.344h10.922   C193.689,54.656,194.691,54.481,194.281,53.784z M182.905,49.172h5.653v0.384l-5.653,0.005V49.172z"
   id="path4189" />
	<path
   fill="#000000"
   d="M188.943,47.45l-0.197,0.174l-0.508-0.568l-0.195,0.175l-0.062-0.852 M188.943,47.45l0.191-0.174   l-0.509-0.567l0.196-0.175l-0.842-0.153"
   id="path4191" />
</g>
<g
   id="g4193">
	<g
   id="g4195">
		<path
   fill="#000000"
   d="M77.841,73.739H22.148c-5.459,0-6.153-1.293-6.415-1.781c-0.342-0.639-0.282-1.398,0.166-2.072    l4.251-7.146c0.85-1.564,3.145-2.485,6.28-2.485l47.133,0.281c3.084,0,4.937,0.711,6.185,2.365l4.356,7.02    c0.563,1.213,0.242,1.986,0.005,2.354C83.169,73.739,80.698,73.739,77.841,73.739z M18.355,70.795    c0.639,0.183,1.896,0.368,3.793,0.368h55.692c1.103,0,3.019,0,3.854-0.231l-4.075-6.575c-0.533-0.71-1.469-1.243-4.065-1.243    L26.42,62.831c-2.677,0-3.808,0.774-4.03,1.183L18.355,70.795z"
   id="path4197" />
	</g>
	<g
   id="g4199">
		<path
   fill="#000000"
   d="M58.409,82.488H41.58c-1.287,0-2.168-0.341-2.611-1.011c-0.322-0.493-0.368-1.106-0.116-1.681l1.257-3.446    c0.322-1.056,1.389-1.751,2.768-1.751l14.253,0.136c1.299,0,2.214,0.56,2.718,1.666l1.333,3.441    c0.276,0.971-0.029,1.55-0.231,1.816C60.321,82.488,59.26,82.488,58.409,82.488z M41.544,79.912c0.01,0,0.026,0,0.035,0h16.83    c0.015,0,0.025,0,0.04,0l-0.976-2.515c-0.029-0.05-0.105-0.086-0.352-0.086l-14.254-0.136c-0.267,0-0.362,0.07-0.362,0.07    L41.544,79.912z"
   id="path4201" />
	</g>
	<g
   id="g4203">
		<path
   fill="#000000"
   d="M74.757,53.744H24.085c-0.357,0-0.644-0.287-0.644-0.645V18.602c0-0.354,0.286-0.643,0.644-0.643h50.671    c0.356,0,0.644,0.289,0.644,0.643V53.1C75.4,53.457,75.113,53.744,74.757,53.744z M24.729,52.457h49.383v-33.21H24.729V52.457z"
   id="path4205" />
	</g>
	<g
   id="g4207">
		<path
   fill="#000000"
   d="M86.821,86.812H13.323c-2.752,0-7.582-0.418-9.011-3.226c-0.388-0.765-0.826-2.345,0.634-4.342    l9.992-17.243c1.278-2.385,2.767-4.206,5.298-5.007c-2.526-1.619-4.192-4.347-4.192-7.437V22.175c0-4.956,4.297-8.986,9.575-8.986    h47.612c5.278,0,9.569,4.03,9.569,8.986v27.382c0,3.281-1.877,6.154-4.674,7.729c3.336,0.353,4.603,2.048,6.414,4.469l0.544,0.724    l10.209,16.905c1.167,1.983,0.795,3.473,0.276,4.378C94.133,86.283,90.017,86.812,86.821,86.812z M23.406,60.416    c-2.736,0-3.718,0.91-5.096,3.472L8.176,81.352c-0.357,0.503-0.381,0.665-0.381,0.665c0.23,0.175,2.223,0.93,5.529,0.93h73.498    c3.321,0,5.152-0.72,5.398-1.106c0,0.006-0.004,0.006-0.004,0.006c-0.021,0-0.065-0.187-0.242-0.484L81.449,64.069    c-1.898-2.531-2.235-2.989-4.735-2.989L69.629,61v-6.31h3.604c3.145,0,5.705-2.305,5.705-5.133V22.175    c0-2.826-2.561-5.122-5.705-5.122H25.62c-3.15,0-5.711,2.296-5.711,5.122v27.382c0,2.828,2.561,5.133,5.711,5.133h3.94v5.802    L23.406,60.416z M33.097,60.557V54.69h32.99v5.842L33.097,60.557z"
   id="path4209" />
	</g>
	<g
   id="g4211">
		<path
   fill="#000000"
   d="M66.138,47.747l-1.016,0.896l-2.617-2.923l-1.006,0.901l-0.322-4.388 M66.138,47.747l0.985-0.898    l-2.62-2.924l1.011-0.902l-4.337-0.79"
   id="path4213" />
	</g>
</g>
</svg>